<?xml version="1.0" encoding="UTF-8" standalone="no"?>
<svg
   xmlns:dc="http://purl.org/dc/elements/1.1/"
   xmlns:cc="http://creativecommons.org/ns#"
   xmlns:rdf="http://www.w3.org/1999/02/22-rdf-syntax-ns#"
   xmlns:svg="http://www.w3.org/2000/svg"
   xmlns="http://www.w3.org/2000/svg"
   xmlns:sodipodi="http://sodipodi.sourceforge.net/DTD/sodipodi-0.dtd"
   xmlns:inkscape="http://www.inkscape.org/namespaces/inkscape"
   width="2235.4644"
   height="1986.9436"
   id="svg2"
   version="1.1"
   inkscape:version="0.48.2 r9819"
   sodipodi:docname="Flag_of_Kurdistan.svg">
  <metadata
     id="metadata18">
    <rdf:RDF>
      <cc:Work
         rdf:about="">
        <dc:format>image/svg+xml</dc:format>
        <dc:type
           rdf:resource="http://purl.org/dc/dcmitype/StillImage" />
      </cc:Work>
    </rdf:RDF>
  </metadata>
  <defs
     id="defs16" />
  <sodipodi:namedview
     pagecolor="#ffffff"
     bordercolor="#666666"
     borderopacity="1"
     objecttolerance="10"
     gridtolerance="10"
     guidetolerance="10"
     inkscape:pageopacity="0"
     inkscape:pageshadow="2"
     inkscape:window-width="1400"
     inkscape:window-height="988"
     id="namedview14"
     showgrid="false"
     fit-margin-top="0"
     fit-margin-left="0"
     fit-margin-right="0"
     fit-margin-bottom="0"
     inkscape:zoom="0.236"
     inkscape:cx="989.25977"
     inkscape:cy="1093.5608"
     inkscape:window-x="-8"
     inkscape:window-y="-8"
     inkscape:window-maximized="1"
     inkscape:current-layer="svg2" />
  <path
     style="fill:#ed2024;fill-opacity:1;fill-rule:evenodd;stroke:#ed2024;stroke-width:2.24716139;stroke-linecap:round;stroke-linejoin:round;stroke-miterlimit:4;stroke-opacity:1;stroke-dasharray:none;stroke-dashoffset:0"
     d="m 719.66033,659.61999 c -1.1669,-1.8539 -5.0394,-12.3032 -8.6055,-23.22066 l -6.4838,-19.84993 -5.2865,-0.17724 c -12.3653,-0.4146 -13.3072,-1.12484 -22.612,-17.051 l -8.7527,-14.98107 -0.046,-17.97729 c -0.034,-13.09525 0.7611,-21.18181 2.9269,-29.77733 5.6085,-22.25883 4.0667,-25.51886 -15.5918,-32.967 l -11.3972,-4.31815 0,-6.8357 c 0,-5.38523 0.8583,-7.73153 4.0449,-11.05765 5.7126,-5.96268 5.3064,-11.95117 -1.566,-23.08531 -4.7921,-7.76379 -5.8052,-10.97355 -6.9422,-21.99426 -1.32295,-12.82223 -5.10107,-24.17911 -9.15069,-27.5065 -1.16387,-0.95628 -6.49807,-2.85674 -11.85381,-4.22324 -6.14999,-1.56913 -13.96155,-5.24047 -21.20203,-9.96464 l -11.46432,-7.48012 -8.51463,4.54366 c -13.55545,7.2336 -17.11946,7.36311 -30.45948,1.10692 -15.61638,-7.32375 -18.86013,-7.77736 -29.50962,-4.12673 -12.5727,4.30991 -27.3876,7.60261 -34.32395,7.62869 -5.0623,0.019 -6.76788,-0.923 -12.1657,-6.71934 l -6.27797,-6.74148 -15.92382,0 c -10.61538,0 -15.92382,0.55126 -15.92382,1.65359 0,2.46429 -17.57138,20.31887 -26.6574,27.08705 -6.77001,5.04297 -12.44754,7.21237 -38.78277,14.81893 -16.96845,4.90111 -35.64638,9.65866 -41.50649,10.57234 -11.2165,1.74882 -36.6856,0.86386 -52.6018,-1.82773 -18.85123,-3.18793 -45.61609,-19.74293 -74.70832,-46.2097 -7.30724,-6.64781 -14.23648,-12.08691 -15.39831,-12.08691 -1.16184,0 -6.30663,2.12249 -11.43288,4.71662 -10.63682,5.38278 -18.85006,5.98673 -26.73021,1.96557 -2.78402,-1.42066 -13.15163,-8.1353 -23.03914,-14.92141 -9.88751,-6.78613 -22.852609,-14.78929 -28.811309,-17.78483 -7.58492,-3.81306 -11.09193,-6.47401 -11.694,-8.87286 -0.473,-1.88454 1.21424,-10.81341 3.74941,-19.84195 4.30117,-15.31785 4.43788,-16.54094 2.04449,-18.29103 -1.41069,-1.03152 -3.36472,-1.87549 -4.34229,-1.87549 -4.13355,0 -5.66147,-4.33836 -3.76143,-10.68015 2.01595,-6.72861 1.34583,-8.68214 -2.02001,-5.88874 -3.05522,2.5356 -7.45878,0.80676 -9.98045,-3.91833 -1.16188,-2.17711 -4.64895,-5.09534 -7.74906,-6.48494 -7.63171,-3.42085 -34.06329,-29.08 -34.06329,-33.06785 0,-3.71758 -2.12429,-7.88376 -7.57969,-14.86537 -2.25343,-2.88386 -5.14748,-8.93148 -6.43121,-13.43917 -2.1053403,-7.39266 -2.1072003,-8.44646 -0.019,-10.75392 3.22688,-3.56566 1.42701,-7.95005 -4.7629003,-11.60219 -4.15031,-2.44874 -5.17695,-3.9842 -5.17695,-7.7427 0,-2.57852 1.17976,-6.69531 2.62169,-9.14841 2.25561,-3.83738 3.24927,-4.33042 7.1160103,-3.5308 11.29205,2.33511 13.81787,2.34729 19.16606,0.0924 3.1257,-1.31786 6.05217,-3.3579 6.50327,-4.53344 0.45109,-1.17555 3.74401,-3.85084 7.31759,-5.94509 5.46154,-3.20071 8.3672,-3.80777 18.2254,-3.80777 6.45039,0 13.80098,0.59452 16.33464,1.32117 3.46831,0.9947 6.1192,0.62776 10.72765,-1.48491 3.36654,-1.54335 9.9542,-3.80451 14.639229,-5.0248 7.58626,-1.97598 9.0039,-1.96759 12.95713,0.0767 2.44138,1.26248 6.24803,2.08643 8.45921,1.831 3.64177,-0.42071 4.11004,-1.19947 4.9731,-8.27064 0.98848,-8.09869 8.4175,-20.37679 16.03955,-26.50891 2.76602,-2.22533 3.38484,-3.87705 2.80636,-7.49054 -0.68412,-4.27347 0.1215,-5.32931 10.31076,-13.512776 l 11.05287,-8.877088 -0.92833,-7.89861 c -0.87934,-7.481928 -0.73403,-7.947379 2.75479,-8.823018 2.02573,-0.508422 5.6537,-0.712064 8.06218,-0.452536 3.86239,0.416198 4.78261,-0.323488 7.79994,-6.269615 2.57117,-5.066917 3.18968,-8.136956 2.49,-12.359388 l -0.93091,-5.617888 5.60027,0 c 3.08014,0 9.15558,-1.739453 13.50096,-3.86545 7.64808,-3.741854 7.87394,-4.030344 7.06382,-9.022537 -0.94199,-5.804815 1.96881,-10.231949 7.66792,-11.662331 1.8628,-0.467535 7.53516,-5.517582 12.60524,-11.222328 l 9.21832,-10.3722643 8.63253,2.586492 c 8.14726,2.4410968 8.60889,2.8328709 8.21211,6.9694143 -0.29358,3.060577 0.89446,5.957949 3.9378,9.60336 3.99095,4.780537 4.7207,5.086366 8.66,3.629359 3.7706,-1.39461 5.91678,-0.790757 17.38031,4.890172 9.02396,4.471959 14.98839,6.481252 19.2391,6.481252 3.89218,0 7.56315,1.103253 9.96967,2.996215 2.09498,1.647919 5.09993,2.996216 6.67765,2.996216 1.57772,0 4.97833,1.090999 7.55693,2.424442 4.62968,2.394101 4.73656,2.366597 8.53973,-2.197562 2.77978,-3.336011 5.93548,-5.055804 11.3419,-6.181127 4.11979,-0.857517 9.00181,-1.90251 10.84893,-2.322205 2.15407,-0.489437 4.71495,-3.440095 7.14126,-8.228176 l 3.78284,-7.465094 9.78056,0 c 8.43513,0 10.29577,-0.51521 13.52583,-3.745269 3.14793,-3.147923 5.15394,-3.7452694 12.57741,-3.7452694 4.85767,0 9.24877,-0.674148 9.75801,-1.498107 0.50924,-0.82396 5.53773,-1.498108 11.17442,-1.498108 9.67407,0 10.53637,0.2878474 15.38391,5.1353994 4.65966,4.659643 5.7234,5.056531 11.48234,4.284096 5.15046,-0.690822 7.2421,-0.189482 11.09549,2.659457 3.36361,2.48682 7.37704,3.696409 13.76078,4.147286 7.59043,0.536106 9.87239,1.409263 14.46453,5.534596 2.99876,2.693939 6.87511,5.349657 8.61412,5.901594 2.2256,0.706381 3.16181,2.24599 3.16181,5.199639 0,3.776081 0.61148,4.278131 6.10872,5.015464 3.35977,0.450642 7.28922,1.887704 8.73208,3.193469 5.13425,4.646447 15.12135,2.597173 15.12135,-3.102783 0,-2.851721 1.4037,-4.295392 6.36696,-6.548302 3.50183,-1.589537 8.5819,-2.904874 11.28905,-2.922969 4.41776,-0.02953 5.21818,0.657847 7.81182,6.708582 2.30941,5.387628 3.63207,6.741484 6.58615,6.741484 2.413,0 6.56336,2.732824 11.95376,7.871044 6.62731,6.317256 10.41809,8.556488 19.20298,11.343305 16.09004,5.104224 21.3562,7.964011 21.91495,11.900907 0.33246,2.342392 2.7639,4.556289 7.81527,7.116011 8.83937,4.479246 14.94457,4.694373 22.20937,0.782588 2.9961,-1.613237 8.9542,-3.926779 13.2403,-5.141204 7.3248,-2.075405 8.0169,-2.031848 11.5218,0.725075 2.0509,1.613217 4.1535,4.271227 4.6726,5.906689 1.4227,4.482387 8.9828,7.935023 12.8469,5.86703 4.2958,-2.299022 6.9066,-0.910162 8.0467,4.280461 0.8753,3.985346 1.7008,4.510046 8.5178,5.414366 4.413,0.5854 8.3004,0.37736 9.3586,-0.50082 0.9955,-0.82619 4.8102,-1.94724 8.4771,-2.49123 3.667,-0.54398 8.9444,-2.287086 11.7277,-3.873566 4.4681,-2.546761 7.187,-2.796007 23.2207,-2.128671 9.9881,0.41571 20.5152,1.4551 23.3936,2.309751 2.8784,0.85466 8.4401,1.55392 12.3594,1.55392 7.8632,0 11.1447,2.284186 15.4888,10.781606 1.3913,2.72169 3.4496,5.48763 4.574,6.14654 1.1243,0.65892 2.0655,2.34429 2.0915,3.74527 0.072,3.8461 7.3783,-4.99324 8.4158,-10.18099 0.4574,-2.28661 2.2795,-4.86198 4.0493,-5.72304 4.119,-2.0041 18.7139,-3.21016 19.2724,-1.59261 0.482,1.39597 4.1665,1.9004 11.3573,1.55491 6.0728,-0.29177 11.0989,-5.342686 13.5899,-13.656763 1.1892,-3.96929 3.2012,-6.761542 5.8715,-8.148414 2.2342,-1.160428 5.6578,-4.277235 7.608,-6.926236 2.849,-3.870024 3.4012,-6.098311 2.8103,-11.340748 -0.8205,-7.280024 -0.8913,-7.224314 11.3723,-8.957302 6.3413,-0.896101 7.9245,-1.899178 12.7339,-8.068213 8.8852,-11.396863 10.8053,-12.423748 18.2914,-9.782484 3.4672,1.223295 8.2082,2.224173 10.5355,2.224173 2.3273,0 4.7706,0.94965 5.4296,2.110333 0.973,1.714079 3.589,1.876804 13.9319,0.866625 7.0036,-0.684038 14.5353,-1.702232 16.7369,-2.262653 3.0594,-0.778755 5.5314,0.03074 10.4868,3.434073 3.56597,2.44916 14.19227,8.315985 23.61387,13.037389 13.514,6.772232 18.1434,8.41994 21.9302,7.80543 4.3059,-0.698758 5.2772,-0.114515 9.4353,5.675549 2.5494,3.54997 5.2972,8.195395 6.1061,10.323166 0.8661,2.277766 3.649,4.77874 6.7675,6.081713 l 5.2965,2.213039 0,10.474777 c 0,5.761136 -0.6741,10.891426 -1.4981,11.400666 -2.9783,1.84066 -1.5824,7.72027 2.2472,9.46511 3.2692,1.48956 3.7452,2.66009 3.7452,9.20901 0,7.24838 -0.1903,7.58306 -5.6179,9.87908 -4.1655,1.76215 -8.0204,2.12574 -14.9113,1.40644 l -9.2934,-0.97008 -7.4519,14.84947 c -4.3785,8.72534 -9.0411,15.89085 -11.3055,17.37454 -4.8124,3.15324 -5.2386,9.85905 -0.8026,12.62937 1.6781,1.04798 2.9465,2.72699 2.8187,3.73109 -0.8216,6.45449 0.63,8.9643 8.8982,15.38516 4.8266,3.74818 9.6958,8.53427 10.8205,10.63577 1.7971,3.35786 1.7321,4.04961 -0.536,5.70811 -1.4195,1.03796 -2.5809,2.36205 -2.5809,2.94243 0,3.15091 6.6507,15.8427 8.3019,15.8427 3.1535,0 8.4066,9.8002 7.4009,13.80729 -0.7424,2.95803 -0.01,3.95519 4.4896,6.10019 2.9574,1.41027 7.7608,2.56413 10.6742,2.56413 3.4263,0 7.5866,1.57516 11.7793,4.45981 5.3119,3.65474 6.7851,4.09466 8.1608,2.43703 0.9233,-1.11251 1.2447,-3.15373 0.7143,-4.53602 -1.0692,-2.78627 4.6075,-9.85136 7.9154,-9.85136 1.119,0 1.986,-1.63302 1.986,-3.74095 0,-4.70139 9.5144,-15.47184 16.1046,-18.23073 2.6779,-1.12103 4.8689,-2.50639 4.8689,-3.07856 0,-0.57217 -2.4097,-3.50808 -5.3549,-6.52425 l -5.3549,-5.48392 7.6245,-4.69146 c 9.0359,-5.55985 9.0739,-5.56433 13.3562,-1.57483 2.6939,2.50978 4.4732,2.92609 9.1377,2.13803 3.1858,-0.53824 6.9681,-2.2778 8.4051,-3.86569 1.4371,-1.58789 3.5504,-2.88708 4.6964,-2.88708 1.146,0 5.2496,-1.68537 9.1191,-3.74527 3.8695,-2.0599 8.2974,-3.74527 9.8398,-3.74527 2.9871,0 23.3658,-11.94493 29.1327,-17.07606 2.2787,-2.02752 3.1838,-4.12574 2.6674,-6.18341 -1.0275,-4.09378 6.3247,-8.70733 11.7186,-7.35353 4.5083,1.13149 11.2489,-4.75902 11.6061,-10.14234 0.1255,-1.89136 0.302,-4.25227 0.3922,-5.24648 0.2151,-2.37092 9.986,-12.42437 12.0752,-12.42437 0.8915,0 6.3918,-2.28634 12.2227,-5.08076 7.0265,-3.36732 10.8804,-6.14605 11.4279,-8.23959 0.6705,-2.56408 1.9807,-3.15884 6.9587,-3.15884 3.373,0 6.1327,0.68045 6.1327,1.5121 0,0.83165 4.4121,3.6878 9.8047,6.347 8.338,4.11165 10.0119,4.50174 11.1901,2.6077 1.1055,-1.77729 1.9585,-1.87217 4.2227,-0.46968 1.6477,1.02069 5.4221,1.41083 9.0027,0.93057 4.1965,-0.56286 7.2832,-0.0946 9.6655,1.46636 5.6269,3.68692 14.7654,5.76341 17.0436,3.87272 2.7215,-2.25865 6.4855,-0.47303 6.4855,3.07667 0,1.62705 1.3649,3.91429 3.0331,5.08275 2.9505,2.0666 2.8705,2.26272 -2.9365,7.20096 -3.2832,2.79207 -7.7698,6.45912 -9.9702,8.149 -5.5625,4.2721 -4.0198,7.72562 6.8869,15.41722 8.9206,6.29102 10.3523,8.19979 7.481,9.97431 -3.0528,1.88675 -1.5145,6.8094 2.619,8.38094 6.2891,2.39113 8.8426,5.37277 10.9028,12.73104 2.6559,9.48585 7.2221,11.73147 16.1089,7.92214 8.8885,-3.81006 10.22,-3.61695 15.7635,2.28606 2.8722,3.05855 6.8933,5.50436 10.0358,6.10427 9.274,1.77044 10.0197,2.24875 12.6704,8.12691 2.3674,5.24998 2.3952,6.11198 0.3011,9.32963 -2.8526,4.38319 -9.9301,26.31147 -9.9561,30.8472 -0.012,2.19824 1.5103,4.12321 4.4752,5.65638 2.9663,1.53397 4.4943,3.46608 4.4943,5.68314 0,1.84747 1.6643,5.80835 3.6985,8.80194 3.6978,5.44179 3.6981,5.44522 1.3732,16.45243 -1.2789,6.05523 -2.7747,13.95851 -3.324,17.56287 -0.9219,6.04997 -1.507,6.75164 -7.616,9.13445 -6.452,2.51657 -12.0699,7.63587 -12.1477,11.06955 -0.021,0.93867 -2.6525,2.91078 -5.8474,4.38246 -7.833,3.60824 -11.1613,10.6765 -10.2428,21.7523 0.5776,6.9656 1.443,8.96001 5.4354,12.52722 5.2856,4.72271 8.4424,5.36963 9.7371,1.99549 1.0591,-2.75998 7.6135,-2.89434 21.8766,-0.44849 9.9889,1.71291 10.7066,1.63787 15.05,-1.57331 l 4.5608,-3.372 5.5769,4.59064 c 3.0672,2.52485 6.9301,7.44626 8.5842,10.9365 2.795,5.89773 3.4764,6.37936 9.6491,6.82047 3.653,0.26107 8.0954,-0.3033 9.872,-1.25414 2.7605,-1.47734 4.2441,-1.01417 10.2008,3.18449 4.7754,3.36602 6.9706,5.97515 6.9706,8.28522 0,1.85455 1.2552,4.25284 2.7893,5.32952 5.4777,3.8442 14.7172,20.2668 16.4273,29.1984 2.856,14.91564 1.8625,36.6582 -1.7865,39.0942 -0.8895,0.59389 -5.6809,2.42811 -10.6473,4.07603 -7.5992,2.52147 -9.1004,3.59966 -9.474,6.8046 -0.2586,2.21788 1.1492,6.15606 3.3707,9.42971 6.463,9.52376 4.9947,14.97974 -4.4248,16.44182 -6.5168,1.01152 -12.7339,6.66103 -12.7339,11.57127 0,5.61392 4.8687,15.04448 8.7998,17.04504 2.1637,1.10115 7.7075,3.08661 12.3196,4.41213 7.757,2.22949 8.3951,2.75117 8.5148,6.96259 0.342,12.02942 3.5507,21.68493 8.8571,26.65363 4.2116,3.9435 5.1198,5.75663 4.502,8.98826 -1.1325,5.92408 2.573,13.53054 7.4953,15.38624 2.3057,0.86926 6.2147,3.50521 8.6866,5.85769 7.9036,7.52175 29.2131,7.67859 29.2131,0.21499 0,-2.33942 1.3531,-3.03505 7.116,-3.65836 7.7479,-0.83802 22.2793,-4.10364 30.8567,-6.93444 6.353,-2.0967 8.4687,-1.20063 8.4687,3.58682 0,5.87573 4.0538,11.88341 10.6987,15.85529 6.7556,4.03805 10.3097,11.03368 6.3731,12.54429 -2.69,1.03226 -2.6599,5.623 0.079,12.18028 l 2.1706,5.19526 -125.7645,0 c -69.17,0 -125.764,-0.25279 -125.764,-0.56178 0,-0.30897 8.3924,-17.83683 18.6498,-38.9508 10.2574,-21.11395 18.1786,-38.37762 17.6028,-38.3637 -0.5759,0.0135 -16.8896,17.51703 -36.2526,38.89577 l -35.2055,38.87046 -42.4406,0.055 -42.4406,0.055 0.835,-4.1198 c 2.5078,-12.37408 21.9758,-138.59871 21.4565,-139.11797 -0.3392,-0.33917 -15.7695,31.58202 -34.2897,70.93601 l -33.673,71.55279 -27.981,0.40759 c -21.8303,0.31799 -27.9964,-0.012 -28.0507,-1.49811 -0.2992,-8.18997 -23.6645,-164.69397 -24.328,-162.95226 -0.7384,1.93851 -23.552,160.55749 -23.5445,163.70132 0,0.63614 -12.5682,0.97321 -27.9326,0.74905 l -27.9354,-0.40759 -33.6966,-71.57475 c -18.5332,-39.36612 -33.95157,-71.3198 -34.26317,-71.00818 -0.4412,0.44121 17.25367,115.80057 21.23877,138.46314 l 0.8562,4.86885 -42.38947,-0.0773 -42.3894,-0.0772 -35.2055,-38.86565 c -19.3631,-21.37611 -35.6617,-38.86921 -36.2192,-38.87355 -0.5575,-0.005 7.3638,17.21769 17.6028,38.27122 10.239,21.05354 18.6164,38.5814 18.6164,38.9508 0,0.3694 -38.4109,0.67165 -85.3576,0.67165 l -85.3576,0 -2.1218,-3.37075 z"
     id="path3770"
     inkscape:connector-curvature="0" />
  <path
     style="fill:#ffffff;fill-opacity:1;fill-rule:evenodd;stroke:#ed2024;stroke-width:2.24716139;stroke-linecap:round;stroke-linejoin:round;stroke-miterlimit:4;stroke-opacity:1;stroke-dasharray:none;stroke-dashoffset:0"
     d="m 1418.292,1279.0875 c -36.9724,-53.3709 -43.5712,-63.9081 -55.1176,-88.0138 -9.2679,-19.349 -11.3662,-24.61 -10.2574,-25.7188 0.4972,-0.4972 49.868,18.7827 109.713,42.8442 59.845,24.0616 109.093,43.4644 109.4399,43.1175 0.3469,-0.3469 -44.5766,-36.2089 -99.8299,-79.6933 -55.2534,-43.4844 -100.2527,-79.2706 -99.9985,-79.5248 0.2542,-0.2542 56.4024,4.2188 124.7737,9.9402 68.3713,5.7213 125.6597,10.1799 127.3076,9.9079 2.9963,-0.4945 2.9963,-0.4945 0,-1.7721 -2.1504,-0.917 -170.9883,-65.9456 -234.762,-90.4196 -1.4103,-0.5412 53.8066,-13.3965 123.2181,-28.68714 69.1754,-15.23856 125.7741,-28.04877 125.7748,-28.46716 6e-4,-0.41839 -54.4363,-4.36167 -120.971,-8.76285 -66.5347,-4.40119 -124.1423,-8.44083 -128.017,-8.97699 l -7.0447,-0.97485 56.4823,-32.09474 c 31.0653,-17.6521 81.3009,-46.2036 111.6347,-63.44778 30.3338,-17.24419 54.8872,-31.61822 54.5631,-31.94232 -0.3241,-0.32408 -56.1083,12.56851 -123.965,28.65022 -67.8567,16.0817 -123.8445,29.05588 -124.4173,28.83151 -0.5729,-0.22437 38.2708,-42.20515 86.3193,-93.29062 48.0484,-51.08547 86.8513,-93.06692 86.2286,-93.29211 -0.6227,-0.22519 -50.273,28.56341 -110.3339,63.97466 -60.061,35.41126 -109.4028,64.18301 -109.6486,63.93722 -0.2458,-0.24578 16.0118,-34.09049 36.1279,-75.21046 l 36.5748,-74.76359 127.839,0 c 115.6533,0 127.8826,0.22702 128.2976,2.38171 0.2522,1.30994 -1.4967,4.34361 -3.8865,6.74149 -2.6065,2.61532 -5.079,7.3569 -6.1793,11.8503 l -1.8342,7.49054 5.6162,4.86885 c 3.089,2.67787 6.4243,4.86885 7.4118,4.86885 2.7303,0 9.6901,5.93671 9.6901,8.26569 0,1.13068 -4.1734,4.28396 -9.2742,7.00728 -5.1008,2.72331 -9.5141,5.71979 -9.8074,6.65883 -0.7513,2.40531 8.2075,7.47399 15.3364,8.67699 10.2608,1.73152 11.2356,2.30142 11.2382,6.57033 0,2.74799 1.8967,5.8011 5.9924,9.65491 3.2945,3.09984 5.99,6.33641 5.99,7.19239 0,0.85597 -2.4838,3.83179 -5.5196,6.61293 l -5.5196,5.05661 2.0109,6.47735 c 1.106,3.56254 2.9357,8.00104 4.066,9.86335 1.4172,2.33487 1.6094,4.21893 0.6192,6.06907 -1.5251,2.84984 2.4365,13.90852 5.7066,15.92957 0.9216,0.56954 3.0279,3.68637 4.6808,6.92631 1.9033,3.73075 4.0478,5.89078 5.8485,5.89078 5.1682,0 7.6762,1.80092 10.6639,7.65731 2.8475,5.58151 2.8641,6.14642 0.4609,15.71347 -1.801,7.16976 -4.0935,11.77333 -8.2609,16.58831 -3.7364,4.31712 -5.768,8.1442 -5.768,10.86565 0,2.31065 -1.3911,5.96969 -3.0914,8.13122 -3.2537,4.13639 -3.1888,9.52515 0.2416,20.06922 1.7312,5.32111 5.1305,6.20586 12.7352,3.31458 3.6096,-1.37239 4.6601,-0.99983 8.9763,3.18355 4.1944,4.06538 5.6154,4.60141 10.0123,3.77653 3.4562,-0.64838 5.676,-2.1723 6.8193,-4.68166 1.0047,-2.20505 2.9492,-3.72037 4.774,-3.72037 1.9332,0 4.235,-1.95948 6.1858,-5.26589 l 3.1069,-5.26589 5.1091,3.15759 5.1091,3.15759 7.2202,-4.63318 c 7.205,-4.62345 17.0013,-6.27643 18.9085,-3.19055 1.9905,3.22079 11.0684,4.31726 18.1352,2.19046 l 6.9547,-2.09307 6.9311,6.10095 c 3.8121,3.35554 9.1295,7.01952 11.8164,8.1422 3.181,1.32912 4.8853,3.07523 4.8853,5.00515 0,3.98907 6.8877,9.17383 12.1869,9.17383 2.3608,0 4.2923,0.66433 4.2923,1.47629 0,0.81196 2.2711,3.00294 5.0469,4.86885 13.3666,8.98522 21.2853,16.70242 24.5005,23.87738 2.7383,6.11041 3.9316,7.34757 6.7103,6.95663 2.6458,-0.37225 3.5493,0.40028 4.1601,3.55715 0.4662,2.40963 2.8905,5.44382 6.0236,7.53892 3.5509,2.37451 5.4017,4.87551 5.7338,7.74825 0.307,2.6546 1.562,4.52218 3.3539,4.99076 3.6548,0.95575 8.3434,8.55644 9.6601,15.66001 0.5621,3.03278 1.9849,5.88363 3.1616,6.33523 1.1767,0.4515 3.4393,3.7004 5.028,7.2197 5.6441,12.5031 8.9932,14.4392 12.0812,6.9841 1.7726,-4.2794 2.3851,-4.597 7.5338,-3.9064 6.0086,0.8059 8.8775,-0.8804 8.8775,-5.2181 0,-4.3587 6.0859,-2.6491 13.0145,3.6559 3.1389,2.8564 3.5755,2.88 10.3791,0.5618 8.1092,-2.763 13.4642,-3.0964 14.8082,-0.9219 0.5092,0.824 2.2344,1.4981 3.8337,1.4981 2.0822,0 2.9078,-1.0357 2.9078,-3.6477 0,-5.8233 2.5661,-10.99497 5.9959,-12.08353 1.9345,-0.614 8.9801,0.85861 18.0664,3.77608 8.1923,2.63055 15.9048,4.39525 17.1389,3.92165 1.2342,-0.4736 2.2439,-2.485 2.2439,-4.46995 0,-4.71516 4.0443,-8.3897 5.3859,-4.89351 1.0144,2.6435 5.1693,3.22224 7.4229,1.03397 0.8719,-0.84658 3.7446,-0.55147 7.4156,0.7618 9.9844,3.57174 21.3106,0.43075 28.5725,-7.92379 1.7863,-2.05499 6.5395,-4.47786 11.1931,-5.70545 4.6867,-1.23633 9.1224,-3.50442 10.5469,-5.39289 2.4397,-3.2344 2.4782,-3.20747 5.055,3.53994 l 2.5966,6.79913 9.9688,1.28083 9.9687,1.28086 -0.474,4.741 c -0.7858,7.85926 9.2146,21.02916 18.1126,23.85326 2.3086,0.7328 4.041,-0.022 6.433,-2.803 l 3.2736,-3.8058 7.1901,5.1119 c 3.9546,2.8116 7.9458,5.112 8.8695,5.112 0.9237,0 4.2809,-2.6641 7.4604,-5.9202 4.8031,-4.9189 6.2671,-5.6599 8.6557,-4.3816 3.7589,2.0117 14.2622,0.1995 17.4156,-3.0048 1.3548,-1.3767 4.3299,-4.743 6.6114,-7.4808 l 4.1482,-4.97784 5.9684,5.39214 c 5.1518,4.6543 6.9787,5.392 13.3536,5.392 7.9878,0 7.9264,-0.068 9.7833,10.9247 0.7987,4.7282 0.3179,6.4441 -2.8654,10.2272 -2.1038,2.5002 -3.825,6.1666 -3.825,8.1476 0,3.5558 -3.4481,5.4361 -8.9887,4.9017 -4.9366,-0.4761 -7.3278,0.3786 -8.13,2.9062 -0.4627,1.458 -3.2048,3.9236 -6.0934,5.4793 -5.6738,3.0555 -5.9144,3.4839 -3.8182,6.7981 1.0539,1.6664 0.2859,2.6578 -3.1911,4.1198 -2.5185,1.059 -5.9192,1.9254 -7.5571,1.9254 -1.6379,0 -6.2415,1.8345 -10.2303,4.0768 -6.5586,3.6868 -7.7363,3.9017 -12.312,2.2471 -7.4874,-2.7075 -12.1237,-2.2572 -20.0268,1.9449 -5.3628,2.8514 -7.553,5.0956 -8.9559,9.1762 -2.7571,8.0201 -4.11,8.8233 -10.0852,5.9879 -6.8163,-3.2346 -11.721,-3.103 -19.6925,0.5284 -6.1343,2.7946 -11.2542,2.7747 -11.2542,-0.044 0,-0.6762 -3.6375,-0.8541 -8.0833,-0.3953 -7.1739,0.7404 -8.2755,0.4754 -9.7905,-2.3554 -1.0153,-1.8973 -3.1674,-3.1897 -5.3112,-3.1897 -1.9823,0 -4.0208,-0.6742 -4.53,-1.4981 -1.8917,-3.0609 -8.1417,-1.5434 -10.7971,2.6217 -1.4447,2.2659 -5.3186,6.5548 -8.6088,9.531 -5.5879,5.0546 -5.8614,5.6763 -4.1494,9.4337 2.8578,6.2721 2.2348,8.8963 -3.4106,14.3682 -6.2382,6.0462 -6.7766,10.8053 -1.4947,13.2119 5.728,2.6099 9.8404,10.2836 8.0436,15.0094 -1.2233,3.2177 -0.7061,4.9077 3.1969,10.4449 2.561,3.6334 4.3015,6.9611 3.8676,7.3949 -1.9907,1.9907 -13.1587,0.5025 -18.0979,-2.4117 -16.2083,-9.5631 -14.7836,4.9217 2.7794,28.2579 l 8.4548,11.234 -7.0538,1.4999 c -6.6499,1.4141 -7.1255,1.8431 -8.3051,7.4924 -1.5468,7.4082 -0.5683,11.5843 4.7429,20.2402 2.2804,3.7166 5.0073,9.3664 6.0597,12.5552 1.0524,3.1889 4.1042,8.2379 6.7818,11.2201 2.6777,2.9821 6.704,9.1299 8.9475,13.6616 2.2435,4.5318 7.8927,14.1419 12.5536,21.3558 7.2807,11.2686 9.2658,13.3343 14.0924,14.6643 3.8258,1.0543 5.6179,2.4045 5.6179,4.2326 0,2.9538 11.8176,12.1811 15.6005,12.1811 1.3072,0 2.3768,1.1429 2.3768,2.5397 0,1.3969 1.8115,4.4305 4.0255,6.7415 l 4.0256,4.2018 -332.596,0 -332.5959,0 -35.026,-50.5612 z"
     id="path3772"
     inkscape:connector-curvature="0" />
  <path
     style="fill:#ffffff;fill-opacity:1;fill-rule:evenodd;stroke:#ed2024;stroke-width:2.24716139;stroke-linecap:round;stroke-linejoin:round;stroke-miterlimit:4;stroke-opacity:1;stroke-dasharray:none;stroke-dashoffset:0"
     d="m 862.68183,754.35344 c -57.1295,-33.68241 -104.6466,-62.19266 -105.5935,-63.35611 -0.947,-1.16346 -8.4129,-7.43529 -16.591,-13.93741 l -14.8693,-11.82202 83.6946,-0.38724 c 46.0321,-0.21298 84.1867,0.1241 84.7881,0.74906 1.6287,1.69254 73.4467,148.99061 72.9066,149.53072 -0.255,0.25505 -47.206,-27.0946 -104.3355,-60.777 z"
     id="path3782"
     inkscape:connector-curvature="0" />
  <path
     style="fill:#ffffff;fill-opacity:1;fill-rule:evenodd;stroke:#ed2024;stroke-width:2.24716139;stroke-linecap:round;stroke-linejoin:round;stroke-miterlimit:4;stroke-opacity:1;stroke-dasharray:none;stroke-dashoffset:0"
     d="m 856.52463,859.73879 c -32.5267,-7.78641 -59.4577,-14.47531 -59.8466,-14.86423 -0.389,-0.38893 0.1006,-5.41746 1.0878,-11.17453 3.5336,-20.60637 1.527,-33.04131 -6.1427,-38.06669 -2.0315,-1.33106 -13.2121,-4.08752 -24.8459,-6.12544 -19.2747,-3.37643 -23.5124,-4.74599 -47.7417,-15.42959 -14.6242,-6.44834 -27.7578,-12.14566 -29.1859,-12.66071 -1.7238,-0.62172 -2.2763,-1.83663 -1.6441,-3.61485 2.0181,-5.67573 11.5121,-16.58249 21.2745,-24.44014 5.6035,-4.51022 13.5045,-12.5417 17.5577,-17.84772 5.8283,-7.62968 9.4046,-10.6607 17.1002,-14.49282 l 9.7306,-4.8455 4.6477,4.75512 c 2.5562,2.61531 36.8713,39.13668 76.2557,81.1586 39.3843,42.02192 75.0222,79.94277 79.1951,84.26855 5.849,6.06322 6.9125,7.82749 4.6421,7.70105 -1.6197,-0.0902 -29.5578,-6.5347 -62.0845,-14.3211 l 0,0 z"
     id="path3784"
     inkscape:connector-curvature="0" />
  <path
     style="fill:#ffffff;fill-opacity:1;fill-rule:evenodd;stroke:#ed2024;stroke-width:2.24716139;stroke-linecap:round;stroke-linejoin:round;stroke-miterlimit:4;stroke-opacity:1;stroke-dasharray:none;stroke-dashoffset:0"
     d="m 825.33533,939.07983 c -3.2402,-5.59625 -6.6283,-11.59359 -7.5292,-13.32742 -1.1725,-2.25669 -4.246,-3.7059 -10.8167,-5.1003 -7.349,-1.55957 -10.9456,-3.44198 -18.0414,-9.44275 -4.8745,-4.12217 -8.8626,-7.84504 -8.8626,-8.27302 0,-1.14331 10.8662,-16.72757 11.6634,-16.72757 1.1353,0 102.0458,57.57442 101.6333,57.98684 -0.2113,0.21135 -10.4527,1.06749 -22.7585,1.90254 -12.3059,0.83506 -26.2045,1.88692 -30.8857,2.33747 l -8.5114,0.8192 -5.8912,-10.17499 0,0 z"
     id="path3786"
     inkscape:connector-curvature="0" />
  <path
     style="fill:#278e43;fill-opacity:1;fill-rule:evenodd;stroke:#278e43;stroke-width:2.24716139;stroke-linecap:round;stroke-linejoin:round;stroke-miterlimit:4;stroke-opacity:1;stroke-dasharray:none;stroke-dashoffset:0"
     d="m 1340.4508,1982.267 c -6.3695,-16.7529 -10.9099,-31.7289 -14.8642,-49.0278 -6.9905,-30.581 -10.1038,-38.2085 -20.0211,-49.0509 -5.0577,-5.5296 -14.6255,-23.0732 -14.6255,-26.8176 0,-0.6467 1.5169,-1.8413 3.3708,-2.6546 5.1431,-2.2564 9.8002,-13.4335 12.164,-29.1938 1.174,-7.8276 2.9904,-16.095 4.0363,-18.3719 1.1194,-2.4369 6.0804,-6.7184 12.0605,-10.4085 9.4548,-5.8343 10.2802,-6.7748 11.9109,-13.5723 1.1985,-4.9961 1.4166,-14.0139 0.6903,-28.5438 -1.4092,-28.1899 -0.6062,-30.2702 16.5005,-42.7443 16.9237,-12.3407 22.3736,-20.9374 24.6824,-38.9338 1.9849,-15.4723 9.9041,-21.605 32.4739,-25.1481 16.9869,-2.6666 26.5619,-6.7816 28.8132,-12.3828 4.6317,-11.5242 10.5744,-45.5013 10.5897,-60.5461 0,-4.7889 -0.9252,-11.8675 -2.0667,-15.7301 -1.1416,-3.8626 -3.2385,-11.0679 -4.6599,-16.0116 -6.7981,-23.6442 -16.9659,-36.5829 -35.7683,-45.5159 -21.9634,-10.4348 -35.0118,-13.7398 -60.1166,-15.2265 -12.3594,-0.732 -34.1719,-1.353 -48.4723,-1.38 -18.5965,-0.035 -28.5762,-0.7165 -35.0452,-2.3928 -12.0194,-3.1145 -38.3355,-14.7801 -41.002,-18.1757 -5.6744,-7.2259 -5.5792,-7.6344 2.7674,-11.8669 4.3427,-2.2022 11.7935,-4.9143 16.5572,-6.0269 23.3142,-5.4452 49.0574,-27.0478 60.9612,-51.1558 l 5.2039,-10.5392 24.4891,36.7155 c 13.469,20.1935 24.7364,36.4682 25.0386,36.166 0.3022,-0.3023 -7.5139,-25.9875 -17.369,-57.0784 -17.4127,-54.9331 -17.853,-56.6555 -15.5975,-61.0172 l 2.3211,-4.4884 53.1686,0 53.1686,0 20.5747,16.729 c 11.3161,9.201 21.7586,17.736 23.2056,18.9668 4.401,3.7435 4.376,1.0798 -0.048,-5.1199 -2.2988,-3.2214 -8.0499,-11.4204 -12.7804,-18.2198 l -8.6008,-12.3627 333.5806,0.3778 333.5806,0.3778 3.7318,8.6412 3.7319,8.6413 -8.1712,8.587 c -4.4941,4.7228 -8.7985,9.6144 -9.5653,10.8701 -0.7669,1.2557 -3.2482,3.4623 -5.5141,4.9034 -2.2658,1.4412 -4.1054,3.1103 -4.0878,3.7093 0.072,2.4402 11.9898,9.3287 16.1401,9.3287 2.4516,0 6.7211,0.9518 9.4879,2.1151 4.2814,1.8002 5.7622,1.8094 9.945,0.062 4.87,-2.0349 4.9544,-1.9984 9.3209,4.0293 5.5808,7.7041 6.433,10.4629 4.667,15.1078 -0.9339,2.4564 -2.9755,4.0438 -5.9718,4.643 -5.9088,1.1818 -16.2139,10.5291 -17.3075,15.6989 -0.4696,2.22 -0.289,6.0589 0.4014,8.5308 0.7851,2.811 0.6505,5.4781 -0.3595,7.1211 -2.3267,3.785 0.28,7.1437 9.0103,11.61 l 7.3303,3.7501 -7.627,7.1112 c -4.1949,3.9112 -9.0676,7.1112 -10.8281,7.1112 -1.7606,0 -6.8246,1.7771 -11.2533,3.9492 l -8.0522,3.9491 -5.8117,-3.9491 c -6.689,-4.5453 -9.5231,-4.8461 -15.6773,-1.6636 -5.1087,2.6418 -5.9188,8.4478 -2.1858,15.6666 2.1062,4.0729 2.0128,4.5835 -1.6313,8.9142 -4.6855,5.5684 -6.0539,5.6862 -9.8592,0.8486 -1.6444,-2.0906 -4.4964,-3.7453 -6.4552,-3.7453 -2.2812,0 -5.5858,-2.3591 -9.4433,-6.7415 -6.191,-7.0333 -11.1112,-8.5958 -13.5191,-4.2931 -1.2604,2.2522 -1.9567,2.2303 -8.6886,-0.2731 -4.0251,-1.4967 -10.1437,-5.2723 -13.5968,-8.39 -3.4531,-3.1177 -8.1722,-6.0842 -10.4867,-6.5923 -2.3146,-0.508 -6.1081,-1.523 -8.43,-2.2554 l -4.2216,-1.3319 0.5245,13.8151 c 0.2885,7.5983 1.0806,14.9948 1.7602,16.4367 1.0942,2.3215 0.3318,2.6217 -6.6585,2.6217 -6.2751,0 -9.3806,0.9538 -15.1413,4.6505 l -7.2472,4.6505 0,9.2212 c 0,7.5987 0.5272,9.5504 2.9962,11.0923 1.6479,1.0292 3.0104,3.3823 3.0278,5.2292 0.017,1.8469 1.6872,8.0506 3.7108,13.7858 3.3473,9.487 3.4765,10.7373 1.432,13.8575 -1.236,1.8864 -2.7556,3.4298 -3.3769,3.4298 -0.6214,0 -3.3024,1.9844 -5.9579,4.4098 -4.4555,4.0695 -4.83,5.1393 -4.8512,13.8575 -0.03,12.4393 -0.7883,13.4351 -9.3366,12.2634 -4.8772,-0.6685 -8.1422,-2.2211 -11.0471,-5.2531 -3.5838,-3.7407 -5.2261,-4.3041 -12.5456,-4.3041 -4.6322,0 -9.5652,0.8427 -10.9623,1.8726 -2.3761,1.7517 -2.3462,2.3816 0.4628,9.7538 1.6516,4.3346 3.0029,11.2287 3.0029,15.3203 0,6.8326 -0.5803,8.0454 -7.1161,14.8739 -6.3446,6.6287 -12.7359,10.6131 -17.0244,10.6131 -0.8106,0 -2.6532,-2.6341 -4.0946,-5.8535 l -2.6207,-5.8535 -6.5494,5.479 c -3.6021,3.0134 -9.5799,7.1644 -13.2839,9.2242 -10.1242,5.6304 -10.7833,7.5831 -5.6448,16.7242 4.125,7.3383 4.2042,7.8125 1.6195,9.7025 -2.2608,1.6531 -2.4349,2.6076 -1.0358,5.6782 1.4768,3.2413 1.2793,3.8185 -1.6207,4.7363 -5.7295,1.8133 -9.9481,5.7317 -9.9969,9.2853 -0.067,4.8596 -5.2748,14.4769 -9.743,17.9916 -2.0829,1.6384 -3.787,3.324 -3.787,3.7457 0,1.5577 14.0876,10.0378 16.6754,10.0378 1.4733,0 4.4029,1.854 6.5103,4.1198 3.4841,3.7462 3.745,4.8905 2.8766,12.6171 -0.9494,8.4464 -0.9302,8.5001 3.2182,8.9886 3.7908,0.4464 4.5685,1.6584 8.4858,13.2253 2.777,8.2001 4.4923,16.6952 4.8176,23.8597 0.3812,8.3947 1.1393,11.5895 3.0884,13.0147 1.9715,1.4415 2.6772,4.5313 2.9799,13.0471 0.2182,6.1371 0.8053,11.8195 1.3047,12.6275 0.4994,0.8081 -0.3584,2.6153 -1.9062,4.0161 -2.6612,2.4084 -3.2095,2.3419 -10.0769,-1.2215 -3.9945,-2.0726 -9.2851,-5.1466 -11.757,-6.8311 -5.3241,-3.6282 -10.1531,-3.945 -12.7339,-0.8353 -2.6628,3.2085 -11.5668,2.7934 -16.0704,-0.7491 -2.095,-1.6479 -4.6249,-2.9962 -5.622,-2.9962 -0.9971,0 -3.0331,1.3483 -4.5245,2.9962 -1.7191,1.8996 -4.6141,2.9962 -7.9099,2.9962 -6.6246,0 -22.4574,-7.0433 -23.5466,-10.4749 -0.4561,-1.4371 -2.1284,-3.7886 -3.7162,-5.2255 -2.077,-1.8797 -2.6488,-3.8035 -2.038,-6.8572 0.7253,-3.6266 0.1153,-4.6917 -4.1909,-7.317 -2.7718,-1.6899 -6.5653,-3.075 -8.4298,-3.0781 -2.6147,0 -4.2441,-1.8046 -7.1233,-7.8707 -6.6647,-14.0412 -8.9106,-15.8401 -22.745,-18.2183 -6.7567,-1.1615 -12.9468,-2.5209 -13.7558,-3.0208 -0.809,-0.5 -2.298,-4.6054 -3.3091,-9.1231 -1.011,-4.5177 -2.196,-8.2141 -2.6333,-8.2141 -0.4373,0 -5.2176,2.6694 -10.6229,5.9319 -12.9098,7.7921 -21.0981,10.5473 -31.3454,10.5473 l -8.407,0 -22.4904,22.9597 c -19.1781,19.5783 -23.4832,23.2374 -29.2318,24.8453 -5.1953,1.453 -8.1047,3.5973 -12.6849,9.3491 -3.2689,4.105 -10.3475,10.7098 -15.7302,14.6774 -10.2032,7.5209 -15.9199,9.3791 -41.8317,13.5978 -9.9006,1.612 -11.7259,2.4579 -17.2584,7.9987 -3.6261,3.6315 -6.9745,8.8316 -8.0895,12.5631 l -1.9026,6.367 -8.8548,0 c -4.8701,0 -12.2906,0.7369 -16.49,1.6375 -10.1847,2.1842 -13.5097,7.4295 -19.2807,30.4162 -2.4609,9.8019 -5.2568,18.3053 -6.2132,18.8964 -0.9564,0.591 -9.9378,1.5322 -19.9587,2.0914 -20.2541,1.1302 -23.7788,2.559 -28.3296,11.4836 -1.9852,3.8931 -2.62,8.8291 -2.6217,20.3855 0,19.0132 -1.2351,20.8768 -12.6332,19.1068 -4.1765,-0.6486 -13.998,-1.0923 -21.8256,-0.9859 -12.6535,0.1718 -16.4683,0.949 -34.3941,7.0071 -11.0891,3.7476 -20.3754,6.8138 -20.6361,6.8138 -0.2607,0 -1.0818,-1.5988 -1.8247,-3.5528 z"
     id="path3788"
     inkscape:connector-curvature="0" />
  <path
     style="fill:#febd11;fill-opacity:1;fill-rule:evenodd;stroke:#febd11;stroke-width:2.24716139;stroke-linecap:round;stroke-linejoin:round;stroke-miterlimit:4;stroke-opacity:1;stroke-dasharray:none;stroke-dashoffset:0"
     d="m 1534.3825,1234.6163 c -10.7114,-4.3291 -56.3707,-22.5113 -101.4649,-40.4049 -45.0943,-17.8936 -82.4462,-33.2727 -83.0044,-34.1758 -2.2285,-3.6059 -0.2461,-13.1721 7.8623,-37.9407 l 8.487,-25.9251 -3.8885,-6.6353 c -2.1387,-3.6494 -9.0633,-12.9698 -15.3879,-20.7119 -6.3247,-7.7422 -12.1261,-15.4476 -12.892,-17.1231 -0.9474,-2.0729 -0.1252,-11.1699 2.5727,-28.4641 2.4268,-15.5564 3.5982,-27.72307 3.0193,-31.36006 -1.2953,-8.1385 -7.9986,-27.45853 -11.5783,-33.37066 -2.8141,-4.64773 -3.1128,-4.76537 -6.9457,-2.735 -3.7098,1.96514 -4.3037,1.83818 -8.053,-1.7217 -4.1739,-3.96292 -5.1584,-4.10924 -21.42,-3.18333 -8.6863,0.49458 -9.0642,0.3613 -11.2358,-3.96169 -1.2359,-2.46041 -3.9325,-5.35324 -5.9924,-6.4285 -5.0919,-2.65794 -15.5082,-1.1875 -23.0994,3.26086 -3.3626,1.97043 -11.05,5.08182 -17.0832,6.91422 -11.4039,3.46358 -16.7455,7.44372 -16.7455,12.47739 0,2.882 -0.067,2.88517 -3.0938,0.14606 -2.413,-2.1837 -5.9572,-2.9037 -16.1047,-3.27168 -19.2075,-0.69655 -21.6299,-0.50621 -24.2989,1.90923 -1.337,1.20992 -5.1612,2.19984 -8.4983,2.19984 -4.277,0 -8.6371,1.54732 -14.775,5.24337 -4.7891,2.88386 -9.4473,5.24338 -10.3515,5.24338 -0.9042,0 -4.311,1.35973 -7.5707,3.02162 -5.287,2.69546 -6.7704,2.8328 -13.7429,1.27244 l -7.8162,-1.7492 -6.1587,5.56405 c -5.2984,4.78672 -6.8237,5.42353 -10.9181,4.55825 -2.6177,-0.55318 -6.1932,-2.32075 -7.9455,-3.92795 -3.0174,-2.76742 -10.5331,-4.45736 -29.871,-6.71668 -5.4213,-0.63338 -8.8963,-0.2107 -12.1653,1.47973 -4.1258,2.13355 -7.5802,2.16014 -35.1068,0.27035 l -30.53077,-2.09606 -16.4792,16.33117 -16.4792,16.33125 -32.2093,-17.10876 c -31.7425,-16.86078 -40.4747,-20.20442 -52.882,-20.24911 -5.4736,-0.0196 -7.7077,-1.19489 -17.1545,-9.02391 -11.0425,-9.15146 -12.9379,-11.90222 -8.2396,-11.9581 1.4419,-0.0172 14.4193,-1.01436 28.8386,-2.21599 14.4193,-1.20163 28.2056,-2.19883 30.6363,-2.21598 2.7416,-0.0193 3.8791,-0.55895 2.9962,-1.42135 -1.4898,-1.45525 -56.7144,-33.30582 -85.6802,-49.4158 -9.2632,-5.15191 -17.2316,-9.99726 -17.7076,-10.76741 -0.476,-0.77016 1.091,-3.91638 3.4823,-6.99162 6.7622,-8.69635 6.7893,-8.86069 3.1386,-19.03994 -1.8952,-5.2844 -3.1278,-9.926 -2.7391,-10.31465 0.3886,-0.38867 14.5265,2.64609 31.4174,6.74388 51.5323,12.50193 94.793,22.34953 95.4214,21.72115 0.6311,-0.63115 -8.8714,-10.87147 -107.06,-115.37313 -34.0037,-36.1899 -61.521,-66.1037 -61.1496,-66.47508 0.3714,-0.37139 26.8442,14.79997 58.8286,33.71413 117.4501,69.45491 153.5893,90.44275 154.3774,89.65469 0.4433,-0.44334 -11.8513,-26.61412 -27.3214,-58.1573 -47.3617,-96.56932 -78.7917,-161.81767 -78.2218,-162.38758 0.5569,-0.55692 16.5033,16.39637 45.2511,48.10826 8.9633,9.88751 19.7899,21.68511 24.0591,26.21688 4.2693,4.53178 15.7759,17.05981 25.5704,27.84007 50.37617,55.44674 71.63927,78.37646 72.17907,77.83667 0.6627,-0.66275 -1.2408,-13.56772 -10.9476,-74.21648 -14.5647,-91.00252 -26.28777,-168.19485 -25.64167,-168.84101 0.487,-0.48701 12.93137,25.09139 38.41277,78.95456 7.9908,16.89116 18.4164,38.80098 23.1679,48.68849 4.7515,9.88751 13.205,27.75245 18.7855,39.69985 25.5904,54.7867 25.7884,55.15228 27.1842,50.18661 0.6948,-2.47188 4.0165,-23.70755 7.3817,-47.19039 22.9539,-160.17824 27.8638,-192.2328 28.798,-188.0125 2.6435,11.94099 8.9117,53.70751 28.7541,191.59519 3.6628,25.45333 6.9684,46.58749 7.3457,46.96484 0.8932,0.89317 4.744,-6.80126 23.7976,-47.55132 8.6684,-18.53908 27.0083,-57.30261 40.7554,-86.14118 13.7471,-28.83857 28.7493,-60.35944 33.3382,-70.04638 4.589,-9.68693 8.5824,-17.3738 8.8742,-17.08193 0.779,0.77891 -6.6696,50.42141 -22.0642,147.05261 -8.7974,55.22089 -14.8638,95.66611 -14.416,96.11385 0.5459,0.54593 10.2196,-9.86231 60.0911,-64.65359 17.9994,-19.77502 36.2008,-39.6624 40.4475,-44.19417 9.7003,-10.35131 50.3402,-54.84701 59.0782,-64.68338 3.5999,-4.05252 6.8079,-7.10574 7.1287,-6.78494 0.8119,0.81197 -7.5316,18.61327 -33.1725,70.7751 -41.1609,83.73452 -72.6914,149.44908 -72.0264,150.11411 0.3644,0.36437 24.1402,-13.12781 52.8351,-29.98262 97.9644,-57.54225 152.6277,-89.31418 155.5841,-90.42997 4.0523,-1.52944 -4.2695,7.65028 -89.7535,99.00701 -40.8251,43.62975 -74.0128,79.54147 -73.7504,79.80383 0.2623,0.26237 9.1714,-1.60227 19.798,-4.14364 57.2008,-13.67978 218.4445,-50.74354 218.8767,-50.31138 0.65,0.65003 -43.6307,26.26184 -133.6391,77.29645 -76.2391,43.22746 -79.1955,44.95155 -78.4061,45.72486 0.2775,0.27182 55.5866,4.40474 122.9092,9.18425 67.3226,4.77954 122.1603,8.93443 121.8616,9.23314 -0.6221,0.62205 -31.8898,7.76758 -149.1364,34.08176 -45.7298,10.26335 -84.8304,19.05925 -86.8903,19.54645 l -3.7452,0.8858 3.7452,1.9582 c 2.0599,1.077 54.1534,21.3403 115.7632,45.0296 61.6099,23.6893 111.7827,43.3068 111.4952,43.5943 -0.2875,0.2875 -17.3253,-0.8181 -37.8616,-2.4569 -20.5364,-1.6388 -75.6885,-6.0365 -122.5602,-9.7726 -46.8718,-3.7361 -85.4967,-6.5176 -85.8332,-6.1812 -0.3365,0.3365 15.0921,12.9801 34.2857,28.097 39.8464,31.3828 152.5291,120.9033 154.6712,122.878 3.0276,2.791 -3.5675,0.7798 -22.3967,-6.8301 l 0,0 z"
     id="path3790"
     inkscape:connector-curvature="0" />
  <path
     style="fill:#ffffff;fill-opacity:1;fill-rule:evenodd;stroke:#ed2024;stroke-width:1.58898306;stroke-linecap:round;stroke-linejoin:round;stroke-miterlimit:4;stroke-opacity:1;stroke-dasharray:none;stroke-dashoffset:0"
     d="m 1326.7516,1328.2366 c 0,-3.9416 23.5919,-32.5915 37.9882,-46.1326 l 3.2894,-3.0941 5.0498,4.2076 c 2.7774,2.3142 16.3712,13.3896 30.2086,24.612 13.8374,11.2225 25.1589,20.6128 25.1589,20.8675 0,0.2546 -22.8813,0.463 -50.8474,0.463 -28.2026,0 -50.8475,-0.4113 -50.8475,-0.9234 z"
     id="path3792"
     inkscape:connector-curvature="0" />
  <path
     style="fill:#febd11;fill-opacity:1;fill-rule:evenodd;stroke:#febd11;stroke-width:1.58898306;stroke-linecap:round;stroke-linejoin:round;stroke-miterlimit:4;stroke-opacity:1;stroke-dasharray:none;stroke-dashoffset:0"
     d="m 1452.3955,1345.7927 c -10.9667,-8.8567 -34.2528,-27.7423 -51.747,-41.9681 l -31.8075,-25.865 3.5846,-3.0505 c 5.8238,-4.9562 11.5596,-8.4394 20.004,-12.148 6.0722,-2.6667 7.8616,-3.9294 7.5915,-5.3566 -0.5406,-2.8573 -0.2212,-2.4172 26.9362,37.1097 13.9282,20.2722 30.0063,43.556 35.7291,51.7418 5.7228,8.1858 10.2349,15.0535 10.0269,15.2616 -0.2081,0.208 -9.351,-6.8682 -20.3178,-15.7249 z"
     id="path3794"
     inkscape:connector-curvature="0" />
  <path
     style="fill:#febd11;fill-opacity:1;fill-rule:evenodd;stroke:#febd11;stroke-width:1.58898306;stroke-linecap:round;stroke-linejoin:round;stroke-miterlimit:4;stroke-opacity:1;stroke-dasharray:none;stroke-dashoffset:0"
     d="m 1328.8703,1411.0952 c -11.9439,-17.8082 -21.5504,-32.9224 -21.3479,-33.587 0.2026,-0.6646 1.2976,-4.8574 2.4334,-9.3174 1.1359,-4.46 3.8766,-12.1974 6.0905,-17.1943 l 4.0253,-9.0853 3.4591,11.368 c 1.9025,6.2524 8.8941,28.7477 15.5368,49.9896 6.6427,21.2418 11.952,38.9778 11.7983,39.4133 -0.1537,0.4355 -10.0517,-13.7786 -21.9955,-31.5869 z"
     id="path3796"
     inkscape:connector-curvature="0" />
</svg>
